<?xml version="1.0" encoding="utf-8"?>
<!-- Generator: Adobe Illustrator 23.0.0, SVG Export Plug-In . SVG Version: 6.00 Build 0)  -->
<svg version="1.1" id="Capa_1" xmlns="http://www.w3.org/2000/svg" xmlns:xlink="http://www.w3.org/1999/xlink" x="0px" y="0px"
	 viewBox="0 0 480 480" style="enable-background:new 0 0 480 480;" xml:space="preserve">
<style type="text/css">
	.st0{fill:#FFFFFF;}
</style>
<g>
	<g>
		<path class="st0" d="M240,80c-88.4,0-160,71.6-160,160s71.6,160,160,160s160-71.6,160-160C399.9,151.7,328.3,80.1,240,80z
			 M240,384c-79.5,0-144-64.5-144-144S160.5,96,240,96s144,64.5,144,144C383.9,319.5,319.5,383.9,240,384z"/>
	</g>
</g>
<g>
	<g>
		<path class="st0" d="M467.9,49.5c-7.3-3.1-15.8-1.4-21.4,4.3c-19.6,19.5-30.5,45.9-30.5,73.5V232c0,10.1,6.4,19.1,16,22.5V408
			c0,13.3,10.7,24,24,24s24-10.7,24-24V67.7C480,59.7,475.2,52.5,467.9,49.5z M464,408c0,4.4-3.6,8-8,8s-8-3.6-8-8V256h16V408z
			 M464,240h-24c-4.4,0-8-3.6-8-8V127.3c-0.1-23.4,9.2-45.8,25.8-62.2c0.6-0.7,1.5-1.1,2.5-1.1c0.5,0,1,0.1,1.5,0.3
			c1.4,0.5,2.3,1.9,2.2,3.4V240z"/>
	</g>
</g>
<g>
	<g>
		<path class="st0" d="M176,184c-17.7,0-32,14.3-32,32s14.3,32,32,32s32-14.3,32-32S193.7,184,176,184z M176,232
			c-8.8,0-16-7.2-16-16s7.2-16,16-16s16,7.2,16,16S184.8,232,176,232z"/>
	</g>
</g>
<g>
	<g>
		<path class="st0" d="M240.7,189.4l-14.1-14.1c-1.7-1.7-2.6-4-2.6-6.3c0-13.8-11.2-24.9-25-25h-32c-6.6,0-13,2.6-17.7,7.3
			l-30.1,30.1c-4.7,4.7-7.3,11-7.3,17.7V233c0,6.6,2.6,13,7.3,17.7l14.1,14.1c1.7,1.7,2.6,4,2.6,6.3c0,13.8,11.2,25,25,25h16
			c6.6,0,13-2.6,17.7-7.3l22.1-22.1c1.7-1.7,4-2.6,6.3-2.6c13.8,0,24.9-11.2,25-25v-32C248,200.4,245.4,194,240.7,189.4z M232,239
			c0,5-4,9-9,9c-6.6,0-13,2.6-17.7,7.3l-22.1,22.1c-1.7,1.7-4,2.6-6.3,2.6h-16c-5,0-9-4-9-9c0-6.6-2.6-13-7.3-17.7l-14.1-14.1
			c-1.7-1.7-2.6-4-2.6-6.3V199c0-2.4,0.9-4.7,2.6-6.3l30.1-30.1c1.7-1.7,4-2.6,6.3-2.6h32c5,0,9,4,9,9c0,6.6,2.6,13,7.3,17.7
			l14.1,14.1c1.7,1.7,2.6,4,2.6,6.3L232,239L232,239z"/>
	</g>
</g>
<g>
	<g>
		<path class="st0" d="M317.7,258.3l-32-32c-3.1-3.1-8.2-3.1-11.3,0c-1.5,1.5-2.3,3.5-2.3,5.7v16c0,4.4-3.6,8-8,8
			c-13.3,0-24,10.7-24,24c0,4.4-3.6,8-8,8c-13.3,0-24,10.7-24,24c0,4.4-3.6,8-8,8h-16c-4.4,0-8,3.6-8,8c0,2.1,0.8,4.2,2.3,5.7l32,32
			c1.5,1.5,3.5,2.3,5.7,2.3h16c13.3,0,24-10.7,24-24c0-4.4,3.6-8,8-8c13.3,0,24-10.7,24-24c0-4.4,3.6-8,8-8c13.3,0,24-10.7,24-24
			v-16C320,261.9,319.2,259.8,317.7,258.3z M304,280c0,4.4-3.6,8-8,8c-13.3,0-24,10.7-24,24c0,4.4-3.6,8-8,8c-13.3,0-24,10.7-24,24
			c0,4.4-3.6,8-8,8h-12.7l-16.2-16.2c12-1.6,20.9-11.7,20.9-23.8c0-4.4,3.6-8,8-8c13.3,0,24-10.7,24-24c0-4.4,3.6-8,8-8
			c12.1,0,22.2-8.9,23.8-20.9l16.2,16.2V280z"/>
	</g>
</g>
<g>
	<g>
		<path class="st0" d="M359,195.7l-1.4-1.4l-40-40L284.3,121c-12-12-31.4-12-43.3,0c-12,12-12,31.4,0,43.3l1.4,1.4l40,40l33.4,33.4
			c12,12,31.4,12,43.3,0C371,227.1,371,207.7,359,195.7z M253.3,131.4c2.6-2.2,5.9-3.4,9.3-3.4h0c3.9,0,7.6,1.6,10.3,4.3l19.7,19.7
			h-41.3C246.2,145.8,247.1,136.6,253.3,131.4z M267.3,168h41.4l24,24h-41.4L267.3,168z M346.7,228.6c-2.6,2.2-5.9,3.4-9.3,3.4h0
			c-3.9,0-7.6-1.6-10.3-4.3L307.3,208h41.3C353.8,214.2,352.9,223.4,346.7,228.6z"/>
	</g>
</g>
<g>
	<g>
		<path class="st0" d="M64,48v64H48V48H32v64H16V48H0v104c0,12.5,6,24.3,16,31.8V408c0,13.3,10.7,24,24,24s24-10.7,24-24V183.8
			c10-7.5,16-19.3,16-31.8V48H64z M48,408c0,4.4-3.6,8-8,8s-8-3.6-8-8V192h16V408z M64,152c0,13.3-10.7,24-24,24s-24-10.7-24-24v-24
			h48V152z"/>
	</g>
</g>
</svg>
