<?xml version="1.0" encoding="utf-8"?>
<!-- Generator: Adobe Illustrator 23.0.0, SVG Export Plug-In . SVG Version: 6.00 Build 0)  -->
<svg version="1.1" id="Layer_1" xmlns="http://www.w3.org/2000/svg" xmlns:xlink="http://www.w3.org/1999/xlink" x="0px" y="0px"
	 viewBox="0 0 512 512" style="enable-background:new 0 0 512 512;" xml:space="preserve">
<g id="Line_expand">
	<g>
		<path d="M477.9,117.5c-2.3-1.3-4.7-2.6-7.1-3.6l24.2-41.9l-13.9-8L455,109c-10.4-1.9-21.3-1.6-31.8,1.3c-2.5,0.7-4.9,1.4-7.2,2.3
			l13.4-23.2l-13.9-8l-13.4,23.2c-2.1-13-7.7-25.4-16.4-35.6l26.1-45.1l-13.9-8l-24.2,42c-2.1-1.6-4.4-3-6.7-4.4
			c-3.8-2.2-8.7-0.9-10.9,2.9l-16,27.7c-7.4,12.9-10.4,27.1-9.5,40.9c-1.2-0.8-2.4-1.5-3.6-2.2c-3.8-2.2-8.7-0.9-10.9,2.9l-16,27.7
			c-7.4,12.9-10.4,27.1-9.5,40.9c-1.2-0.8-2.4-1.5-3.6-2.2c-3.8-2.2-8.7-0.9-10.9,2.9l-16,27.7c-1.7,2.9-3.2,6-4.4,9.1
			c-1.1-2.5-2.3-5-3.7-7.4l-16-27.7c-2.2-3.8-7.1-5.1-10.9-2.9c-1.2,0.7-2.4,1.5-3.6,2.2c1-13.8-2-28-9.5-40.9l-16-27.7
			c-2.2-3.8-7.1-5.1-10.9-2.9c-1.2,0.7-2.4,1.5-3.6,2.2c1-13.8-2-28-9.5-40.9l-16-27.7c-2.2-3.8-7.1-5.1-10.9-2.9
			c-2.3,1.4-4.6,2.8-6.7,4.4l-24.2-42l-13.9,8l26.1,45.1c-8.7,10.2-14.3,22.6-16.4,35.6L96.5,83.2l-13.9,8L96,114.4
			c-2.4-0.9-4.8-1.7-7.2-2.3c-10.6-2.8-21.4-3.2-31.8-1.3l-26-45.1l-13.9,8l24.2,41.9c-2.4,1.1-4.8,2.3-7.1,3.6
			c-3.8,2.2-5.1,7.1-2.9,10.9l5.7,9.8l13.9-8l-1.4-2.4c11.2-4.5,23.4-5.3,35.3-2.1c14.4,3.9,26.5,13.1,34,26.1l11.7,20.3
			c-25.4,10.2-55.2,0.4-69.3-24l-13.9,8c7.4,12.9,18.2,22.6,30.7,28.6c-1.3,0.6-2.5,1.3-3.7,2c-3.8,2.2-5.1,7.1-2.9,10.9l16,27.7
			c7.3,12.6,17.9,22.4,30.6,28.7c-1.2,0.6-2.5,1.3-3.7,2c-3.8,2.2-5.1,7.1-2.9,10.9l16,27.7c7.3,12.6,17.9,22.4,30.6,28.7
			c-1.2,0.6-2.5,1.3-3.7,2c-3.8,2.2-5.1,7.1-2.9,10.9l16,27.7c13.3,23.1,37.6,36,62.5,36c4.3,0,8.7-0.4,13-1.2l52.1,91.4
			c1.4,2.5,4.1,4,7,4h36.8c2.9,0,5.5-1.5,6.9-4s1.4-5.5,0-8l-22.8-40l-13.9,7.9l16,28h-18.4l-47.8-83.9l7-4c0,0,0,0,0,0c0,0,0,0,0,0
			l6.9-4l27.3,47.9l13.9-7.9l-16.8-29.5c20.1-4.1,37.6-16.6,48-34.5l16-27.7c2.2-3.8,0.9-8.7-2.9-10.9c-1.2-0.7-2.5-1.4-3.7-2
			c12.8-6.3,23.4-16.2,30.6-28.6l16-27.7c2.2-3.8,0.9-8.7-2.9-10.9c-1.2-0.7-2.4-1.4-3.7-2c11.3-5.5,21.2-14,28.5-25.3l-13.4-8.7
			c-14.7,22.6-43.3,31.1-67.7,21.4l11.7-20.3c7.5-13,19.6-22.2,34-26.1c11.8-3.2,24.1-2.4,35.3,2.1l-4,6.9l13.9,8l8.2-14.3
			c2.2-3.8,0.9-8.7-2.9-10.9c-1.2-0.7-2.5-1.4-3.7-2c12.4-6.1,23.2-15.8,30.7-28.6l16-27.7C483,124.6,481.7,119.7,477.9,117.5
			L477.9,117.5z M353.9,92.1l11.7-20.3c21.5,16.9,27.9,47.6,13.9,72l-11.7,20.3C346.3,147.2,339.9,116.5,353.9,92.1z M145.6,184.2
			c1.2-0.7,2.4-1.4,3.6-2.2c-0.2,2.7-0.2,5.5-0.1,8.2c-2.3-1.5-4.7-2.8-7.2-4C143.1,185.6,144.4,184.9,145.6,184.2L145.6,184.2z
			 M185.6,253.5c1.2-0.7,2.4-1.4,3.6-2.2c-0.2,2.7-0.2,5.5-0.1,8.2c-2.3-1.5-4.7-2.8-7.2-4C183.1,254.9,184.4,254.2,185.6,253.5
			L185.6,253.5z M225.6,322.8c1.2-0.7,2.4-1.5,3.6-2.2c-0.2,2.7-0.2,5.5-0.1,8.3c-2.3-1.5-4.7-2.8-7.2-4
			C223.1,324.2,224.4,323.5,225.6,322.8z M264.2,373.7l-11.7-20.3c-14.1-24.4-7.7-55.1,13.9-72l11.7,20.3
			C292.1,326.1,285.7,356.8,264.2,373.7L264.2,373.7z M326.4,251.8c1.2,0.7,2.4,1.4,3.7,2c-2.5,1.2-4.9,2.5-7.2,4
			c0.1-2.7,0.1-5.5-0.1-8.2C324,250.3,325.2,251.1,326.4,251.8z M313.9,161.4l11.7-20.3c21.5,16.9,27.9,47.6,13.9,72l-11.7,20.3
			C306.3,216.5,299.9,185.8,313.9,161.4z M273.9,230.7l11.7-20.3c9.5,7.4,16.3,17.7,19.4,29.5c3.9,14.4,1.9,29.5-5.6,42.5l-7.1,12.2
			c-0.2-0.3-0.3-0.6-0.5-0.9l-16-27.7c-1.9-3.3-5.9-4.8-9.4-3.6C265.8,251.4,268.3,240.4,273.9,230.7z M226.3,212.1l11.7,20.3
			c7.5,13,9.5,28,5.6,42.5c-3.2,11.8-10,22.1-19.4,29.5l-11.7-20.3c-7.5-13-9.5-28-5.6-42.5C210.1,229.8,216.9,219.6,226.3,212.1
			L226.3,212.1z M186.3,142.9l11.7,20.3c14.1,24.4,7.7,55.1-13.9,72l-11.7-20.3c-7.5-13-9.5-28-5.6-42.5
			C170.1,160.5,176.9,150.3,186.3,142.9z M146.4,73.6l11.7,20.3c14.1,24.4,7.7,55.1-13.9,72l-11.7-20.3
			C118.4,121.2,124.8,90.5,146.4,73.6z M101.1,219.2l-11.7-20.3c11.2-4.5,23.4-5.3,35.3-2.1c14.4,3.9,26.5,13.1,34,26.1l11.7,20.3
			C144.9,253.3,115.2,243.5,101.1,219.2z M141.1,288.4l-11.7-20.3c11.2-4.5,23.4-5.3,35.3-2.1c14.4,3.9,26.5,13.1,34,26.1l11.7,20.3
			c-11.2,4.5-23.4,5.3-35.3,2.1C160.6,310.7,148.6,301.4,141.1,288.4L141.1,288.4z M181.1,357.7l-11.7-20.3
			c11.2-4.5,23.4-5.3,35.3-2.1c14.4,3.9,26.5,13.1,34,26.1l11.7,20.3C224.9,391.9,195.2,382.1,181.1,357.7z M330.9,356
			c-8.9,15.5-24.8,25.8-42.6,27.7l-4.1-7.1c9.9-11.6,15.8-26,17-40.9c13.3-5.2,28.2-5.1,41.3,0.1L330.9,356z M370.9,286.7
			c-14.1,24.4-43.5,34.4-69.3,24l11.7-20.3c7.5-13,19.6-22.2,34-26.1c11.8-3.2,24.1-2.4,35.3,2.1L370.9,286.7z M362.8,180.3
			c1.2,0.8,2.4,1.5,3.6,2.2c1.2,0.7,2.4,1.4,3.7,2c-2.5,1.2-4.9,2.6-7.2,4C363,185.8,363,183,362.8,180.3L362.8,180.3z M450.9,148.1
			c-14.1,24.4-43.9,34.2-69.3,24l11.7-20.3c7.5-13,19.6-22.2,34-26.1c11.8-3.2,24.1-2.4,35.3,2.1L450.9,148.1z"/>
		<path d="M428.4,389.1l-5.8,10c-4.3-4.1-7.3-9.3-8.9-15.2c-2.3-8.5-1.1-17.4,3.3-25l5.8-10c3.9,3.7,6.8,8.4,8.4,13.5l15.2-4.9
			c-3.7-11.5-11.6-21.2-22.1-27.3c-1.8-1.1-4-1.4-6.1-0.8c-2,0.5-3.8,1.9-4.9,3.7l-10.2,17.7c-6.5,11.3-8.3,24.5-4.9,37.2
			c3.4,12.6,11.5,23.2,22.8,29.7c1.3,0.7,2.6,1.1,4,1.1c2.8,0,5.5-1.4,6.9-4l10.2-17.7c3.7-6.3,5.8-13.2,6.4-20.5l-15.9-1.3
			C432.3,380.2,430.9,384.8,428.4,389.1z"/>
		<path d="M58.9,324.9L39,319.8c-2.1-0.5-4.2-0.2-6.1,0.9s-3.1,2.8-3.7,4.9c-6.7,26.1,9.1,52.9,35.3,59.6l19.8,5.1
			c0.7,0.2,1.3,0.3,2,0.3c1.4,0,2.8-0.4,4.1-1.1c1.8-1.1,3.1-2.8,3.7-4.9C100.8,358.3,85,331.6,58.9,324.9L58.9,324.9z M79.7,372.5
			l-11.1-2.9c-14.9-3.8-24.9-17.4-24.8-32.1l11.1,2.9C69.9,344.2,79.8,357.8,79.7,372.5z"/>
		<path d="M423.5,67.6l8-13.9l13.9,8l-8,13.9L423.5,67.6z"/>
		<path d="M66.6,63.5l13.9-8l8,13.9l-13.9,8L66.6,63.5z"/>
	</g>
</g>
</svg>
