<svg xmlns="http://www.w3.org/2000/svg" viewBox="0 0 190.92 59.15"><defs><style>.cls-1{fill:#c8102e;}</style></defs><title>logo_red</title><g id="Layer_2" data-name="Layer 2"><g id="Layer_1-2" data-name="Layer 1"><g id="T"><path id="shadow_t_up" data-name="shadow t up" class="cls-1" d="M32,12.55c-8.35-.38-18.22.85-18.12,4.34.2,5.3,8.3,4.9,13.7,3.5,2.8-.7,4.8-1.7,4.9-2.2h2.6c-5.1,4-11.3,5.7-19.4,3.8-7.2-3-5.1-10.1,8.7-10.7,0,0,11.9-1.1,21.6,2.4,0,0,2,.6,2.4,1.2s-.6,1-7.9-1.1a34.6,34.6,0,0,0-7.7-1.2l-.78,0-.88,0"/><path class="cls-1" d="M45.48,15.39,33,31s-5.1,6.5-15.6,7-12.5-6.6-7.1-10.8a15.44,15.44,0,0,1,9.2-1.5s2.4.1,1.8,1.3a20.55,20.55,0,0,0-4.7.2c-9.1,1.1-7.2,8.8-1.6,9a8.61,8.61,0,0,0,4.9-.5s6.2-.5,13.5-10.5l7.9-9.6h4.2v-.2Z"/></g><path class="cls-1" d="M166.78,30.49a18.9,18.9,0,0,0-1.9,1.4c-5,3.6-3.5.7-3.5.7l2.6-3.2c3.9-5.4-4.4-2.3-4.5-2.3l5.6-6.8h-3.2l-8.5,10.3c-.6.4-1.5,1.2-2.8,2.1-2.7,1.8-2.6.9-2.6.5s6.9-8.1,6.9-8.1h2l.9-1.2h-1.9l2.5-3H155l-2.5,3.1h-2l-.9,1h1.8c.2.1-3.4,3-5.6,4.9-1.8,1.4-2.4,1.7-2.3,2.1-2,1.3-3.8,1.7-2.6-.2l6.1-7.4h-4l-.6.9s-2.3-3.8-10.8,2.1a10.8,10.8,0,0,0-3.1,4h0a17,17,0,0,1-5.1,2.5c-2.3.4-3.2.3-2.9-1.7,4.8-1,8-2.5,8.6-4.8,0,0,.7-3.8-7.2-.4,0,0-3.6,1.9-4.5,4.7-.2,0-.4.1-.6.1-1.9.2-2.1-1.6-.1-3a17.36,17.36,0,0,1,3-1.8s1.7-1.3,0-1.9-3.6,1.6-4,2.3a8.51,8.51,0,0,1-2.6,2.3c-.3-.1,3.1-3.1.8-4.6-1.8-1.2-7.3,3.3-9.7,5.4h0a8.14,8.14,0,0,1-3.3,1c3.2-4.7,1.5-7.4-2.1-6.5l5.5-6.9h-3.6s-6.5,8.3-7.3,9.1c-.3.3-1.3,1.2-2.3,2.1h0a9.25,9.25,0,0,0-2.1,1.5c-2.5,2-5.8,3.3-4.2,1l6.1-7.4h-4l-.6.9s-2.3-3.8-10.8,2.1a10.26,10.26,0,0,0-3,3.9,6.11,6.11,0,0,1-2.4.6c-1.9.2-2.1-1.6-.1-3a17.36,17.36,0,0,1,3-1.8s1.7-1.3,0-1.9-3.6,1.6-4,2.3a10.15,10.15,0,0,1-2.6,2.3c-.3-.1,3.1-3.1.8-4.6-2-1.3-8,3.9-10.2,5.8h0c-1.8,1.2-4.2,2.6-5.6,2.8-2.3.4-3.2.3-2.9-1.7,4.8-1,8-2.5,8.6-4.8,0,0,.7-3.8-7.2-.4,0,0-3.9,2.1-4.5,5-4.7,3.4-3.3.6-3.3.6l2.6-3.2c3.9-5.4-4.4-2.3-4.5-2.3l5.6-6.8h-3.4l-12.6,15.2,3.2.1s7-8.8,8.4-7.5-1.8,3-2.9,5.2.8,3,3,2.2a16.06,16.06,0,0,0,3.7-2.1,4.72,4.72,0,0,0,.7,1.7s3.2,2.4,9.6-1.6c0,0,2.1-1.5,3.3-2.6,1.9-1.5,4.6-3.6,5.1-3.4.8.2,0,.8-1.5,2.7s-4.6,5.7-4.6,5.7h3.7s4.3-4.8,5.5-5.4c0,0-.6,1.3-.3,1.8s1,1.7,5.1.5a.31.31,0,0,0,.2-.1,4.26,4.26,0,0,0,.9,2.5h-.1q3.6,1.8,6.9-2.1c-.9,3.4,2.2,3.2,6.1,1,0,0,1.7-1,3.2-2h0a8.55,8.55,0,0,0,1.4-.9c-.1.2-1.4,4.5,2.5,4.6a9.16,9.16,0,0,0,6.6-2.9,10.69,10.69,0,0,0,3.2-.5c.1,0,.2,0,.2-.1a.45.45,0,0,0,.5,0c.1,0,.3-.2.5-.3h0a3.66,3.66,0,0,0,1.6-1.2c1.9-1.5,4.6-3.5,5.1-3.4.8.2,0,.8-1.5,2.7s-4.6,5.7-4.6,5.7h3.7s4.3-4.8,5.5-5.4c0,0-.6,1.3-.3,1.8s.9,1.4,3.7.8a4.38,4.38,0,0,0,.7,2s3.2,2.4,9.6-1.6a2.48,2.48,0,0,1,.6-.4,4.14,4.14,0,0,0,.9,2.2h-.1c2.4,1.2,4.7.5,7-2.1-.9,3.4,2.2,3.2,6.1,1,0,0,1.7-1,3.3-2.1-2.6,3.7.8,3.9,2,3.7a14.24,14.24,0,0,0,3.4-1.8l-1.4,1.6,3.2.1s7-8.8,8.4-7.5-1.8,3-2.9,5.2.8,3,3,2.2,6.1-4,6.4-4.5C167.48,30.59,167,30.49,166.78,30.49Zm-45.9.5c1.7-2.4,4.1-4.3,6.1-4.1,0,0,1.3,1.2-2.7,3S120.88,30.89,120.88,31Zm-72,0c1.7-2.4,4.1-4.3,6.1-4.1,0,0,1.3,1.2-2.7,3S48.88,30.89,48.88,31Zm34.8-3.5a18,18,0,0,1-3.3,3.9c-.1.2-3.6,2.9-4.3,2.1s-.5-2.3,2.3-5.2,5.2-2.8,5.2-2.8C84.58,25.69,83.68,27.49,83.68,27.49Zm11.4,6.4c-2,1-2.1-.2-2-1.5s3.6-4.7,3.6-4.7c-.8,1.8-.6,3.3.7,4.4C97.38,32.09,97.08,32.89,95.08,33.89Zm3.2-2.9a3,3,0,0,1,1.2-4.4C100,27.79,99.58,29.29,98.28,31Zm41.5-3.5a18,18,0,0,1-3.3,3.9c-.1.2-3.7,2.9-4.4,2.1s-.5-2.3,2.3-5.2,5.2-2.8,5.2-2.8C140.68,25.69,139.78,27.49,139.78,27.49Z"/><path class="cls-1" d="M32.55,13.07C32.17,13,31.32,13,30.82,13L25.9,20.33l2.16-.53Z"/><path class="cls-1" d="M103.86,21l-1.53,1.84,84.9-19.5L147.41,55.9,90.82,36.48l-.2-.07L3.35,56.83,27.69,20.36a20.54,20.54,0,0,1-2.12.48L0,59.15,90.54,38,148,57.68,190.92,1Z"/><path class="cls-1" d="M31.13,12.51l.61,0h0l1.12.05L40.09,1.78,100.84,21.6l.47-1.42L39.47,0,31.12,12.52h0Z"/></g></g></svg>