<svg id="Layer_1" data-name="Layer 1" xmlns="http://www.w3.org/2000/svg" viewBox="0 0 215.7 99.7">
  <defs>
    <style>
      .cls-1 {
        fill: #fffeff;
      }

      .cls-2 {
        fill: #fff;
      }
    </style>
  </defs>
  <g id="T">
    <path id="shadow_t_up" data-name="shadow t up" class="cls-1" d="M43.8,32.8c-8.3-.4-18.2.9-18.1,4.4.2,5.3,8.3,4.9,13.7,3.5,2.8-.7,4.8-1.7,4.9-2.2h2.6c-5.1,4-11.3,5.7-19.4,3.8s-5.1-10.1,8.7-10.7c0,0,11.9-1.1,21.6,2.4,0,0,2,.6,2.4,1.2s-.6,1-7.9-1.1a34.6,34.6,0,0,0-7.7-1.2H42.9"/>
    <path class="cls-1" d="M57.3,35.7,44.8,51.3s-5.1,6.5-15.6,7-12.5-6.6-7.1-10.8A15.4,15.4,0,0,1,31.3,46s2.4.1,1.8,1.3a20.5,20.5,0,0,0-4.7.2c-9.1,1.1-7.2,8.8-1.6,9a8.6,8.6,0,0,0,4.9-.5s6.2-.5,13.5-10.5l7.9-9.6h4.2v-.2Z"/>
  </g>
  <path class="cls-1" d="M178.6,50.8a18.9,18.9,0,0,0-1.9,1.4c-5,3.6-3.5.7-3.5.7l2.6-3.2c3.9-5.4-4.4-2.3-4.5-2.3l5.6-6.8h-3.2l-8.5,10.3L162.4,53c-2.7,1.8-2.6.9-2.6.5s6.9-8.1,6.9-8.1h2l.9-1.2h-1.9l2.5-3h-3.4l-2.5,3.1h-2l-.9,1h1.8c.2.1-3.4,3-5.6,4.9s-2.4,1.7-2.3,2.1c-2,1.3-3.8,1.7-2.6-.2l6.1-7.4h-4l-.6.9s-2.3-3.8-10.8,2.1a10.8,10.8,0,0,0-3.1,4h0a17,17,0,0,1-5.1,2.5c-2.3.4-3.2.3-2.9-1.7,4.8-1,8-2.5,8.6-4.8,0,0,.7-3.8-7.2-.4,0,0-3.6,1.9-4.5,4.7h-.6c-1.9.2-2.1-1.6-.1-3a17.4,17.4,0,0,1,3-1.8s1.7-1.3,0-1.9-3.6,1.6-4,2.3a8.5,8.5,0,0,1-2.6,2.3c-.3-.1,3.1-3.1.8-4.6s-7.3,3.3-9.7,5.4h0a8.1,8.1,0,0,1-3.3,1c3.2-4.7,1.5-7.4-2.1-6.5l5.5-6.9h-3.6s-6.5,8.3-7.3,9.1l-2.3,2.1h0a9.2,9.2,0,0,0-2.1,1.5c-2.5,2-5.8,3.3-4.2,1l6.1-7.4h-4l-.6.9s-2.3-3.8-10.8,2.1a10.3,10.3,0,0,0-3,3.9,6.1,6.1,0,0,1-2.4.6c-1.9.2-2.1-1.6-.1-3a17.4,17.4,0,0,1,3-1.8s1.7-1.3,0-1.9-3.6,1.6-4,2.3a10.1,10.1,0,0,1-2.6,2.3c-.3-.1,3.1-3.1.8-4.6s-8,3.9-10.2,5.8h0c-1.8,1.2-4.2,2.6-5.6,2.8s-3.2.3-2.9-1.7c4.8-1,8-2.5,8.6-4.8,0,0,.7-3.8-7.2-.4,0,0-3.9,2.1-4.5,5-4.7,3.4-3.3.6-3.3.6l2.6-3.2c3.9-5.4-4.4-2.3-4.5-2.3l5.6-6.8H54.2L41.6,55.7h3.2s7-8.8,8.4-7.5-1.8,3-2.9,5.2.8,3,3,2.2A16.1,16.1,0,0,0,57,53.6a4.7,4.7,0,0,0,.7,1.7s3.2,2.4,9.6-1.6c0,0,2.1-1.5,3.3-2.6s4.6-3.6,5.1-3.4,0,.8-1.5,2.7l-4.6,5.7h3.7s4.3-4.8,5.5-5.4-.6,1.3-.3,1.8,1,1.7,5.1.5h.2a4.3,4.3,0,0,0,.9,2.5h-.1q3.6,1.8,6.9-2.1c-.9,3.4,2.2,3.2,6.1,1l3.2-2h0a8.5,8.5,0,0,0,1.4-.9c-.1.2-1.4,4.5,2.5,4.6a9.2,9.2,0,0,0,6.6-2.9,10.7,10.7,0,0,0,3.2-.5c.1,0,.2,0,.2-.1a.4.4,0,0,0,.5,0l.5-.3h0a3.7,3.7,0,0,0,1.6-1.2c1.9-1.5,4.6-3.5,5.1-3.4s0,.8-1.5,2.7L116.3,56H120s4.3-4.8,5.5-5.4-.6,1.3-.3,1.8.9,1.4,3.7.8a4.4,4.4,0,0,0,.7,2s3.2,2.4,9.6-1.6l.6-.4a4.1,4.1,0,0,0,.9,2.2h-.1c2.4,1.2,4.7.5,7-2.1-.9,3.4,2.2,3.2,6.1,1l3.3-2.1c-2.6,3.7.8,3.9,2,3.7a14.2,14.2,0,0,0,3.4-1.8L161,55.7h3.2s7-8.8,8.4-7.5-1.8,3-2.9,5.2.8,3,3,2.2,6.1-4,6.4-4.5S178.8,50.8,178.6,50.8Zm-45.9.5c1.7-2.4,4.1-4.3,6.1-4.1,0,0,1.3,1.2-2.7,3S132.7,51.2,132.7,51.3Zm-72,0c1.7-2.4,4.1-4.3,6.1-4.1,0,0,1.3,1.2-2.7,3S60.7,51.2,60.7,51.3Zm34.8-3.5a17.9,17.9,0,0,1-3.3,3.9c-.1.2-3.6,2.9-4.3,2.1s-.5-2.3,2.3-5.2,5.2-2.8,5.2-2.8S95.5,47.8,95.5,47.8Zm11.4,6.4c-2,1-2.1-.2-2-1.5s3.6-4.7,3.6-4.7c-.8,1.8-.6,3.3.7,4.4S108.9,53.2,106.9,54.2Zm3.2-2.9a3,3,0,0,1,1.2-4.4C111.8,48.1,111.4,49.6,110.1,51.3Zm41.5-3.5a17.9,17.9,0,0,1-3.3,3.9c-.1.2-3.7,2.9-4.4,2.1s-.5-2.3,2.3-5.2,5.2-2.8,5.2-2.8S151.6,47.8,151.6,47.8Z"/>
  <g>
    <path class="cls-2" d="M44.4,33.3H42.6l-4.9,7.4,2.2-.5Z"/>
    <path class="cls-2" d="M115.7,41.3l-1.5,1.8,84.9-19.4L159.2,76.2,102.6,56.8h-.2L15.2,77.1,39.5,40.6a12.3,12.3,0,0,1-2.1.5L11.8,79.4l90.6-21.2,57.4,19.7,42.9-56.6Z"/>
    <path class="cls-2" d="M43,32.8h1.7l7.2-10.8,60.8,19.8.4-1.4L51.3,20.3,42.9,32.8Z"/>
  </g>
</svg>
