<?xml version="1.0" encoding="utf-8"?>
<!-- Generator: Adobe Illustrator 23.0.0, SVG Export Plug-In . SVG Version: 6.00 Build 0)  -->
<svg version="1.1" id="Layer_1" xmlns="http://www.w3.org/2000/svg" xmlns:xlink="http://www.w3.org/1999/xlink" x="0px" y="0px"
	 viewBox="0 0 512 512" style="enable-background:new 0 0 512 512;" xml:space="preserve">
<style type="text/css">
	.st0{fill:#FFFFFF;}
</style>
<g id="Page-1">
	<g>
		<circle id="Oval" class="st0" cx="59.7" cy="162.1" r="8.5"/>
		<circle class="st0" cx="332.8" cy="162.1" r="8.5"/>
		<path id="Shape" class="st0" d="M486.4,358.4H307.2v-48.9c17.7-5,34.8-12,51-20.8c10.7-6,17.3-17.4,17.3-29.7v-4.6
			c2.7,1,5.6,1.5,8.5,1.6c14.1,0,25.6-11.5,25.6-25.6h25.6v17.1c-4.7,0-8.5,3.8-8.5,8.5s3.8,8.5,8.5,8.5h59.7c4.7,0,8.5-3.8,8.5-8.5
			s-3.8-8.5-8.5-8.5v-34.1c0-23.6-19.1-42.6-42.7-42.7v-17.1h8.5c4.7,0,8.5-3.8,8.5-8.5c0-4.7-3.8-8.5-8.5-8.5h-34.1
			c-4.7,0-8.5,3.8-8.5,8.5c0,4.7,3.8,8.5,8.5,8.5h8.5v17.1h-25.6c0-14.1-11.5-25.6-25.6-25.6c-2.9,0-5.8,0.6-8.5,1.6V65.2
			c0-12.3-6.6-23.7-17.3-29.7C334.5,22.2,281.9,0,196.3,0S58.1,22.2,34.3,35.5c-10.7,6-17.3,17.4-17.3,29.7v193.8
			c0,12.3,6.6,23.6,17.3,29.7c16.2,8.8,33.3,15.8,51,20.8v48.9H25.6c-12.5,0-23.1,8.9-25.2,21.2s4.9,24.3,16.7,28.4v86.9
			c0,9.4,7.6,17.1,17.1,17.1h443.7c9.4,0,17.1-7.6,17.1-17.1V408c11.7-4.1,18.8-16.1,16.7-28.4C509.5,367.3,498.9,358.4,486.4,358.4
			L486.4,358.4z M145.1,358.4v-37.1c17,2,34.1,2.9,51.2,2.9c17.1,0,34.2-1,51.2-2.9v37.1H145.1z M290.1,358.4h-25.6v-51.2h25.6
			V358.4z M34.1,200.2c22.1,7.6,74.4,21.6,162.1,21.6s140.1-14,162.1-21.6v25.2c-14.1,7.3-66.6,30.6-162.1,30.6
			s-148-23.3-162.1-30.6V200.2z M358.4,124c-22.1-7.6-74.4-21.6-162.1-21.6S56.2,116.4,34.1,124V98.9c14.1-7.3,66.6-30.6,162.1-30.6
			s148,23.3,162.1,30.6V124z M358.4,142.2V182c-15.4,5.9-67.9,22.8-162.1,22.8S49.6,187.9,34.1,182v-39.8
			c15.4-5.9,67.9-22.8,162.1-22.8S343,136.4,358.4,142.2z M452.3,187.7c14.1,0,25.6,11.5,25.6,25.6v34.1h-25.6v-17.1
			c0-9.4-7.6-17.1-17.1-17.1h-25.6v-25.6H452.3z M384,162.1c4.7,0,8.5,3.8,8.5,8.5v59.7c0,4.7-3.8,8.5-8.5,8.5s-8.5-3.8-8.5-8.5
			v-59.7C375.5,166,379.3,162.1,384,162.1z M42.7,50.4C64.9,38,114.5,17.1,196.3,17.1S327.6,38,349.9,50.4c5.3,3,8.6,8.7,8.5,14.8
			l0,14.7c-22.6-10.3-75-28.7-162.1-28.7S56.8,69.6,34.1,79.9l0-14.7C34.1,59.1,37.4,53.4,42.7,50.4z M34.1,259.1l0-14.7
			c22.6,10.3,75,28.7,162.1,28.7s139.5-18.4,162.1-28.7l0,14.7c0,6.1-3.2,11.8-8.5,14.8c-15.7,8.5-32.2,15.1-49.4,19.9
			c-2.9-2.3-6.6-3.6-10.3-3.6h-25.6c-8.2,0-15.3,5.9-16.8,14c-34.2,4-68.8,4-103,0c-1.5-8.1-8.5-14-16.8-14h-25.6
			c-3.7,0-7.4,1.3-10.3,3.6c-17.2-4.7-33.7-11.4-49.4-19.9C37.4,270.8,34.1,265.2,34.1,259.1L34.1,259.1z M102.4,307.2H128v51.2
			h-25.6V307.2z M34.1,494.9v-17.1h42.7c4.7,0,8.5-3.8,8.5-8.5c0-4.7-3.8-8.5-8.5-8.5H34.1v-17.1h247.5c4.7,0,8.5-3.8,8.5-8.5
			s-3.8-8.5-8.5-8.5H34.1v-17.1h443.7v17.1h-42.7c-4.7,0-8.5,3.8-8.5,8.5s3.8,8.5,8.5,8.5h42.7v17.1H230.4c-4.7,0-8.5,3.8-8.5,8.5
			c0,4.7,3.8,8.5,8.5,8.5h247.5v17.1H34.1z M486.4,392.5H25.6c-4.7,0-8.5-3.8-8.5-8.5s3.8-8.5,8.5-8.5h460.8c4.7,0,8.5,3.8,8.5,8.5
			S491.1,392.5,486.4,392.5z"/>
		<path class="st0" d="M315.7,443.7h85.3c4.7,0,8.5-3.8,8.5-8.5s-3.8-8.5-8.5-8.5h-85.3c-4.7,0-8.5,3.8-8.5,8.5
			S311,443.7,315.7,443.7z"/>
		<path class="st0" d="M196.3,460.8h-85.3c-4.7,0-8.5,3.8-8.5,8.5c0,4.7,3.8,8.5,8.5,8.5h85.3c4.7,0,8.5-3.8,8.5-8.5
			C204.8,464.6,201,460.8,196.3,460.8z"/>
	</g>
</g>
</svg>
