<svg height="512" viewBox="0 0 60 60" width="512" xmlns="http://www.w3.org/2000/svg"><g id="Page-1" fill="none" fill-rule="evenodd"><g id="004---Beer-Barrel" fill="rgb(0,0,0)" fill-rule="nonzero"><circle id="Oval" cx="7" cy="19" r="1"/><circle id="Oval" cx="39" cy="19" r="1"/><path id="Shape" d="m57 42h-21v-5.727c2.0754516-.5890398 4.0793212-1.4060149 5.975-2.436 1.2550793-.7075221 2.0296419-2.0382398 2.025-3.479v-.542c.320257.1184378.6585603.1806856 1 .184 1.6568542 0 3-1.3431458 3-3h3v2c-.5522847 0-1 .4477153-1 1s.4477153 1 1 1h7c.5522847 0 1-.4477153 1-1s-.4477153-1-1-1v-4c-.0033061-2.7600532-2.2399468-4.9966939-5-5v-2h1c.5522847 0 1-.4477153 1-1s-.4477153-1-1-1h-4c-.5522847 0-1 .4477153-1 1s.4477153 1 1 1h1v2h-3c0-1.6568542-1.3431458-3-3-3-.3414397.0033144-.679743.0655622-1 .184v-9.542c.0041552-1.44088992-.7702253-2.77167704-2.025-3.48-2.775-1.555-8.941-4.162-18.975-4.162s-16.195 2.607-18.975 4.162c-1.25477473.70832296-2.02915517 2.03911008-2.025 3.48v22.716c-.00464193 1.4407602.76992069 2.7714779 2.025 3.479 1.89567881 1.0299851 3.89954837 1.8469602 5.975 2.436v5.727h-7c-1.45943726-.0027654-2.70808095 1.0474881-2.95538732 2.485822-.24730638 1.4383339.57883984 2.8453257 1.95538732 3.330178v10.184c0 1.1045695.8954305 2 2 2h52c1.1045695 0 2-.8954305 2-2v-10.184c1.3765475-.4848523 2.2026937-1.8918441 1.9553873-3.330178s-1.49595-2.4885874-2.9553873-2.485822zm-40 0v-4.342c1.9918141.2286465 3.9951055.3428341 6 .342 2.0048945.0008341 4.0081859-.1133535 6-.342v4.342zm17 0h-3v-6h3zm-30-18.537c2.584.895 8.723 2.537 19 2.537s16.416-1.642 19-2.537v2.95c-1.658.86-7.8 3.587-19 3.587s-17.345-2.729-19-3.587zm38-8.926c-2.584-.895-8.723-2.537-19-2.537s-16.416 1.642-19 2.537v-2.95c1.658-.86 7.8-3.587 19-3.587s17.345 2.729 19 3.587zm0 2.132v4.662c-1.809.69-7.962 2.669-19 2.669s-17.191-1.979-19-2.669v-4.662c1.809-.69 7.962-2.669 19-2.669s17.194 1.98 19 2.669zm11 5.331c1.6568542 0 3 1.3431458 3 3v4h-3v-2c0-1.1045695-.8954305-2-2-2h-3v-3zm-8-3c.5522847 0 1 .4477153 1 1v7c0 .5522847-.4477153 1-1 1s-1-.4477153-1-1v-7c0-.5522847.4477153-1 1-1zm-40-13.092c2.611-1.46 8.419-3.908 18-3.908s15.389 2.448 18 3.907c.6223171.35518581 1.0046139 1.01847068 1 1.735l.0000413 1.719c-2.6510413-1.209-8.7940413-3.361-19.0000413-3.361s-16.349 2.152-19.00004239 3.361l.00004239-1.719c-.0046752-.71628442.37768699-1.37930047 1-1.734zm-1 24.45-.00005159-1.719c2.65105159 1.209 8.79405159 3.361 19.00005159 3.361s16.349-2.152 19.0000516-3.361l-.0000516 1.719c.0051622.716152-.3773809 1.3790992-1 1.733-1.8355037.9929916-3.7779857 1.7740103-5.79 2.328-.3456812-.2700345-.7713524-.4174364-1.21-.419h-3c-.9641467.0015187-1.7899725.690688-1.964 1.639-4.0103342.4690045-8.0616658.4690045-12.072 0-.1740275-.948312-.9998533-1.6374813-1.964-1.639h-3c-.4386476.0015636-.8643188.1489655-1.21.419-2.01201428-.5539897-3.95449632-1.3350084-5.79-2.328-.62261915-.3539008-1.00516221-1.016848-1-1.733zm8 5.642h3v6h-3zm-8 22v-2h5c.55228475 0 1-.4477153 1-1s-.44771525-1-1-1h-5v-2h29c.5522847 0 1-.4477153 1-1s-.4477153-1-1-1h-29v-2h52v2h-5c-.5522847 0-1 .4477153-1 1s.4477153 1 1 1h5v2h-29c-.5522847 0-1 .4477153-1 1s.4477153 1 1 1h29v2zm53-12h-54c-.55228475 0-1-.4477153-1-1s.44771525-1 1-1h54c.5522847 0 1 .4477153 1 1s-.4477153 1-1 1z"/><path id="Shape" d="m37 52h10c.5522847 0 1-.4477153 1-1s-.4477153-1-1-1h-10c-.5522847 0-1 .4477153-1 1s.4477153 1 1 1z"/><path id="Shape" d="m23 54h-10c-.5522847 0-1 .4477153-1 1s.4477153 1 1 1h10c.5522847 0 1-.4477153 1-1s-.4477153-1-1-1z"/></g></g></svg>